<?xml version="1.0" standalone="no"?>
<!DOCTYPE svg PUBLIC "-//W3C//DTD SVG 20010904//EN"
 "http://www.w3.org/TR/2001/REC-SVG-20010904/DTD/svg10.dtd">
<svg version="1.0" xmlns="http://www.w3.org/2000/svg"
 width="1281.000000pt" height="1281.000000pt" viewBox="0 0 1281.000000 1281.000000"
 preserveAspectRatio="xMidYMid meet">
<metadata>
Created by potrace 1.11, written by Peter Selinger 2001-2013
</metadata>
<g transform="translate(0.000000,1281.000000) scale(0.100000,-0.100000)"
fill="#000000" stroke="none">
<path d="M2318 9942 l-78 -3 0 -3414 0 -3415 233 -1 c422 -2 992 2 996 7 8 7
8 83 9 1174 1 564 5 1222 8 1463 l7 437 1476 -2 1476 -3 1 -1537 1 -1536 2082
-4 2081 -3 0 1007 0 1008 -652 -2 -653 -3 -3 -212 -2 -213 380 0 380 0 0 -250
0 -250 -743 0 -744 0 -20 22 c-90 100 -192 292 -227 428 -10 36 -22 82 -27
103 -16 59 -39 274 -39 357 0 84 24 298 39 348 5 17 8 32 6 32 -8 0 59 182 92
248 122 242 370 418 643 453 105 13 292 13 375 0 244 -40 446 -172 559 -366
41 -70 41 -70 113 -56 26 5 95 17 153 26 58 9 138 23 179 31 40 8 86 14 103
14 36 0 34 7 -26 130 -123 248 -310 441 -544 559 -384 194 -878 223 -1307 79
-289 -97 -552 -300 -717 -554 -65 -100 -140 -278 -195 -464 -8 -25 -11 614
-12 2159 -1 1207 -3 2196 -5 2198 -4 5 -1258 4 -1263 0 -1 -2 -3 -605 -3
-1340 l-1 -1337 -1479 0 -1480 0 0 1340 0 1340 -547 2 c-302 2 -583 2 -625 0z
m5441 -5466 c12 -43 40 -120 62 -170 22 -50 43 -97 46 -103 4 -10 -14 -13 -71
-13 l-76 0 1 208 c0 120 4 196 9 182 4 -14 18 -60 29 -104z"/>
<path d="M12675 8330 c-3 -6 1 -7 9 -4 18 7 21 14 7 14 -6 0 -13 -4 -16 -10z"/>
<path d="M2970 2175 c-19 -19 -30 -35 -24 -34 9 0 70 69 62 69 -2 0 -19 -16
-38 -35z"/>
<path d="M2815 2044 l-30 -26 33 18 c17 10 32 22 32 26 0 11 -1 10 -35 -18z"/>
<path d="M2037 1438 c-10 -11 -17 -22 -14 -24 2 -2 12 5 22 16 23 26 16 33 -8
8z"/>
<path d="M1875 1298 l-20 -21 22 12 c23 12 40 31 26 30 -4 0 -17 -10 -28 -21z"/>
<path d="M3666 1115 c-11 -8 -15 -15 -9 -15 6 0 16 7 23 15 16 19 11 19 -14 0z"/>
<path d="M3619 1073 c-13 -16 -12 -17 4 -4 9 7 17 15 17 17 0 8 -8 3 -21 -13z"/>
<path d="M3486 985 c-11 -8 -15 -15 -9 -15 6 0 16 7 23 15 16 19 11 19 -14 0z"/>
<path d="M1214 788 l-29 -33 33 29 c30 28 37 36 29 36 -2 0 -16 -15 -33 -32z"/>
<path d="M1165 740 c-3 -6 1 -7 9 -4 18 7 21 14 7 14 -6 0 -13 -4 -16 -10z"/>
<path d="M1049 639 c-23 -19 -23 -20 -2 -10 12 6 25 16 28 21 10 16 -1 12 -26
-11z"/>
<path d="M3130 259 c0 -5 5 -7 10 -4 6 3 10 8 10 11 0 2 -4 4 -10 4 -5 0 -10
-5 -10 -11z"/>
<path d="M3094 225 c-10 -8 -14 -15 -8 -15 6 0 17 7 24 15 16 19 9 19 -16 0z"/>
</g>
</svg>
